<?xml version="1.0" encoding="UTF-8"?>
<svg id="Layer_1" data-name="Layer 1" xmlns="http://www.w3.org/2000/svg" viewBox="0 0 135.8 13.45">
  <defs>
    <style>
      .cls-1 {
        fill: #010101;
        stroke-width: 0px;
      }

      .cls-2 {
        fill: none;
        stroke: #010101;
        stroke-miterlimit: 10;
        stroke-width: .5px;
      }
    </style>
  </defs>
  <g>
    <path class="cls-1" d="m26.17,1.03l-.55,1.39h-.12c.02-.08.03-.2.03-.34,0-.12-.04-.2-.13-.23-.09-.03-.22-.05-.41-.05h-3v9.83c0,.41.03.68.1.83s.15.24.27.28.29.06.54.06v.12h-3.11v-.12c.39-.03.63-.1.73-.23.1-.12.15-.38.15-.78V1.8h-2.87c-.29,0-.48.02-.57.05-.09.03-.13.12-.13.25,0,.07.02.17.06.31h-.12l-.55-1.39h.12c.09.19.19.3.28.34.09.04.29.06.59.06h7.63c.3,0,.52-.02.65-.06.13-.04.23-.15.29-.34h.12Z"/>
    <path class="cls-1" d="m35.21,7.18h-6.31v4.42c0,.42.02.68.06.79.04.11.11.21.22.29.11.08.29.12.56.12v.12h-2.97v-.12c.54.04.81-.23.81-.79V2.77c0-.53-.04-.86-.13-1-.09-.14-.31-.22-.68-.23v-.12h2.97v.12c-.33.02-.55.08-.66.19s-.17.32-.17.64v4.49h6.31V2.75c0-.47-.04-.79-.12-.96-.08-.17-.31-.25-.67-.25v-.12h2.93v.12c-.23,0-.4.03-.52.08s-.19.14-.23.25-.06.41-.06.87v8.82c0,.45.02.73.06.85s.11.2.22.28c.1.07.28.11.53.11v.12h-2.93v-.12c.32,0,.53-.06.64-.19.11-.13.16-.48.16-1.05v-4.37Z"/>
    <path class="cls-1" d="m38.61,1.56v-.13h7.23v1.58h-.12c-.16-.59-.29-.93-.39-1.04-.11-.1-.37-.16-.78-.16h-3.79v5.16h3.52c.35,0,.57-.03.66-.1.09-.06.14-.16.15-.28h.12v1.08h-.12c-.03-.15-.09-.25-.18-.3-.1-.05-.27-.08-.53-.08h-3.61v3.55c0,.54.05.92.15,1.16.1.24.26.39.47.44.22.06.54.09.98.09h2.03c.64,0,1.06-.02,1.24-.07.18-.04.33-.13.46-.26s.22-.42.29-.86h.12v1.58h-7.86v-.12c.27-.02.47-.07.6-.15.14-.09.21-.31.21-.67V2.7c0-.42-.04-.72-.11-.89s-.31-.26-.7-.26Z"/>
    <path class="cls-1" d="m57.99,7.63h-3.37l-1.74,4.34c-.12.31-.18.5-.18.58,0,.17.13.26.38.26v.12h-1.71v-.12c.23,0,.42-.06.58-.17s.33-.4.51-.87l4.17-10.51h.21l4.1,10.15c0,.05.1.3.32.74.21.44.53.66.96.66v.12h-2.68v-.12c.24,0,.37-.1.37-.29,0-.13-.06-.34-.18-.62-.02-.02-.04-.05-.05-.1-.01-.05-.02-.08-.02-.08l-1.64-4.08Zm-3.26-.32h3.11l-1.55-3.92-1.56,3.92Z"/>
    <path class="cls-1" d="m62.93,1.54v-.12h3.28c1.17,0,2.01.13,2.54.39.53.26.91.58,1.15.97.24.39.36.9.36,1.54,0,.97-.34,1.71-1.01,2.2s-1.58.72-2.73.7v-.12c.73,0,1.32-.22,1.78-.67.46-.45.68-1.04.68-1.76,0-.57-.11-1.07-.33-1.51-.22-.44-.53-.77-.93-1s-1.01-.34-1.83-.34h-.82v9.83c0,.56.06.89.19.99.12.11.36.16.71.16v.12h-3.04v-.12c.54,0,.81-.25.81-.74V2.55c0-.41-.05-.67-.16-.81-.1-.13-.32-.2-.66-.2Z"/>
    <path class="cls-1" d="m71.41,1.54v-.12h3.28c1.17,0,2.01.13,2.54.39.53.26.91.58,1.15.97.24.39.36.9.36,1.54,0,.97-.34,1.71-1.01,2.2s-1.58.72-2.73.7v-.12c.73,0,1.32-.22,1.78-.67.46-.45.68-1.04.68-1.76,0-.57-.11-1.07-.33-1.51-.22-.44-.53-.77-.93-1s-1.01-.34-1.83-.34h-.82v9.83c0,.56.06.89.19.99.12.11.36.16.71.16v.12h-3.04v-.12c.54,0,.81-.25.81-.74V2.55c0-.41-.05-.67-.16-.81-.1-.13-.32-.2-.66-.2Z"/>
    <path class="cls-1" d="m79.88,1.54v-.12h3.26c.83,0,1.43.02,1.79.05.37.04.75.16,1.14.36.39.21.68.48.88.84.2.35.3.78.3,1.29,0,.58-.18,1.14-.53,1.67-.35.53-.85.97-1.49,1.34l.81,1.25c.18.31.65,1,1.41,2.05.76,1.06,1.35,1.7,1.77,1.93.42.23.82.35,1.21.35s.83-.15,1.33-.44l.05.16c-.62.51-1.43.76-2.43.76-.67,0-1.24-.2-1.72-.59s-1.31-1.47-2.5-3.24c-.01-.01-.02-.02-.02-.03l-1.16-1.78-1.02.03h-.93v4.39c0,.35.05.61.14.76.09.15.32.23.67.23v.12h-2.97v-.12c.37-.02.6-.09.69-.23.09-.14.14-.43.14-.86V2.58c0-.3-.04-.54-.12-.74-.08-.2-.31-.3-.71-.3Zm2.15.19v5.39h1.2c.95,0,1.65-.22,2.11-.67.46-.45.69-1.04.69-1.76s-.23-1.38-.68-2.01c-.45-.63-1.24-.95-2.38-.95h-.95Z"/>
    <path class="cls-1" d="m96.67,1.25c1.61,0,2.93.49,3.96,1.47,1.02.98,1.54,2.2,1.54,3.67,0,1.89-.59,3.48-1.78,4.77-1.19,1.29-2.76,1.94-4.72,1.94-1.59,0-2.9-.52-3.91-1.56-1.01-1.04-1.52-2.29-1.52-3.75,0-.98.24-1.99.73-3.03.49-1.04,1.23-1.88,2.21-2.53.98-.65,2.15-.98,3.5-.98Zm-.05,11.24c.79,0,1.57-.21,2.34-.64.77-.42,1.38-1.01,1.82-1.75.44-.74.66-1.51.66-2.29,0-1.11-.3-2.13-.89-3.04-.6-.91-1.37-1.62-2.32-2.14s-1.83-.77-2.63-.77c-1.14,0-2.17.43-3.1,1.29s-1.39,1.92-1.39,3.2c0,1.63.57,3.06,1.7,4.29s2.41,1.85,3.82,1.85Z"/>
    <path class="cls-1" d="m108.6,7.63h-3.37l-1.74,4.34c-.12.31-.18.5-.18.58,0,.17.13.26.38.26v.12h-1.71v-.12c.23,0,.42-.06.58-.17s.33-.4.51-.87l4.17-10.51h.21l4.1,10.15c0,.05.1.3.32.74.21.44.53.66.96.66v.12h-2.68v-.12c.24,0,.37-.1.37-.29,0-.13-.06-.34-.18-.62-.02-.02-.04-.05-.05-.1-.01-.05-.02-.08-.02-.08l-1.64-4.08Zm-3.26-.32h3.11l-1.55-3.92-1.56,3.92Z"/>
    <path class="cls-1" d="m122.8,2l.43,1.22h-.11c-1.11-1.11-2.42-1.66-3.93-1.66s-2.83.47-3.79,1.4c-.96.93-1.45,2.06-1.45,3.38,0,.82.21,1.76.64,2.82.43,1.06,1.11,1.93,2.03,2.62.93.68,2.05,1.03,3.36,1.03.86,0,1.71-.14,2.54-.42.83-.28,1.45-.65,1.85-1.12l.1.03-.8,1.23c-1.3.28-2.14.45-2.53.5s-.91.08-1.56.08c-2.41,0-4.13-.56-5.17-1.67-1.04-1.12-1.56-2.45-1.56-4.01,0-1.05.27-2.06.8-3.03.53-.97,1.3-1.73,2.31-2.29,1-.56,2.15-.84,3.44-.84.64,0,1.2.06,1.67.18s.86.24,1.17.36l.51.2s.03.01.03.02Z"/>
    <path class="cls-1" d="m133.67,7.18h-6.31v4.42c0,.42.02.68.06.79.04.11.11.21.22.29.11.08.29.12.56.12v.12h-2.97v-.12c.54.04.81-.23.81-.79V2.77c0-.53-.04-.86-.13-1-.09-.14-.31-.22-.68-.23v-.12h2.97v.12c-.33.02-.55.08-.66.19s-.17.32-.17.64v4.49h6.31V2.75c0-.47-.04-.79-.12-.96-.08-.17-.31-.25-.67-.25v-.12h2.93v.12c-.23,0-.4.03-.52.08s-.19.14-.23.25-.06.41-.06.87v8.82c0,.45.02.73.06.85s.11.2.22.28c.1.07.28.11.53.11v.12h-2.93v-.12c.32,0,.53-.06.64-.19.11-.13.16-.48.16-1.05v-4.37Z"/>
  </g>
  <g>
    <rect class="cls-2" x="2.23" y="2.21" width="8.98" height="9.04" transform="translate(-2.79 6.73) rotate(-45)"/>
    <path class="cls-2" d="m8.29,1.93c-.86.86-2.25.86-3.11,0,0,0-.02-.02-.02-.02l1.56-1.56,1.58,1.58Z"/>
    <path class="cls-2" d="m13.1,6.74l-1.56,1.56h0c-.86-.87-.86-2.26,0-3.12l1.56,1.56Z"/>
    <path class="cls-2" d="m1.93,8.29l-1.58-1.58,1.56-1.56s.02.02.02.02c.86.86.86,2.25,0,3.11Z"/>
    <path class="cls-2" d="m8.3,11.54l-1.56,1.56-1.56-1.56c.86-.86,2.25-.86,3.11,0h0Z"/>
    <path class="cls-2" d="m9.92,9.93c-1.77-1.77-4.63-1.77-6.4,0,1.77-1.77,1.77-4.63,0-6.4,1.77,1.77,4.63,1.77,6.4,0-1.77,1.77-1.77,4.63,0,6.4Z"/>
  </g>
</svg>